HIERARCHY
ROOT Hips
{
	OFFSET 0.00 0.00 0.00
	CHANNELS 6 Xposition Yposition Zposition Xrotation Yrotation Zrotation
	JOINT LeftUpLeg
	{
		OFFSET 3.29906 0.00000 0.00000
		CHANNELS 3 Xrotation Yrotation Zrotation
		JOINT LeftLeg
		{
			OFFSET 0.00000 -16.90256 0.00000
			CHANNELS 3 Xrotation Yrotation Zrotation
			JOINT LeftFoot
			{
				OFFSET 0.00000 -16.69398 0.00000
				CHANNELS 3 Xrotation Yrotation Zrotation
				JOINT LeftToeBase
				{
					OFFSET 0.00000 -1.46932 5.48360
					CHANNELS 3 Xrotation Yrotation Zrotation
					End Site
					{
						OFFSET 0.00000 0.00000 2.95275
					}
				}
			}
		}
	}
	JOINT RightUpLeg
	{
		OFFSET -3.29906 0.00000 0.00000
		CHANNELS 3 Xrotation Yrotation Zrotation
		JOINT RightLeg
		{
			OFFSET 0.00000 -16.90256 0.00000
			CHANNELS 3 Xrotation Yrotation Zrotation
			JOINT RightFoot
			{
				OFFSET 0.00000 -16.69398 0.00000
				CHANNELS 3 Xrotation Yrotation Zrotation
				JOINT RightToeBase
				{
					OFFSET 0.00000 -1.46932 5.48360
					CHANNELS 3 Xrotation Yrotation Zrotation
					End Site
					{
						OFFSET 0.00000 0.00000 2.95275
					}
				}
			}
		}
	}
	JOINT Spine
	{
		OFFSET 0.00000 0.03937 0.00000
		CHANNELS 3 Xrotation Yrotation Zrotation
		JOINT Spine1
		{
			OFFSET 0.00000 7.07715 0.00000
			CHANNELS 3 Xrotation Yrotation Zrotation
			JOINT Neck
			{
				OFFSET 0.00000 9.58345 0.00000
				CHANNELS 3 Xrotation Yrotation Zrotation
				JOINT Head
				{
					OFFSET 0.00000 6.23786 0.00000
					CHANNELS 3 Xrotation Yrotation Zrotation
					End Site
					{
						OFFSET 0.00000 4.52755 0.00000
					}
				}
			}
			JOINT LeftShoulder
			{
				OFFSET 0.00000 9.58345 0.00000
				CHANNELS 3 Xrotation Yrotation Zrotation
				JOINT LeftArm
				{
					OFFSET 7.67467 -0.00003 0.00000
					CHANNELS 3 Xrotation Yrotation Zrotation
					JOINT LeftForeArm
					{
						OFFSET 12.04206 -0.00004 0.00000
						CHANNELS 3 Xrotation Yrotation Zrotation
						JOINT LeftHand
						{
							OFFSET 9.71053 -0.00004 0.00000
							CHANNELS 3 Xrotation Yrotation Zrotation
							JOINT LeftHandThumb
							{
								OFFSET 0.00000 0.00000 0.00000
								CHANNELS 3 Xrotation Yrotation Zrotation
								End Site
								{
									OFFSET 0.00000 0.00000 3.93700
								}
							}
							JOINT L_Wrist_End
							{
								OFFSET 3.93700 -0.00001 0.00000
								CHANNELS 3 Xrotation Yrotation Zrotation
							}
						}
					}
				}
			}
			JOINT RightShoulder
			{
				OFFSET 0.00000 9.58345 0.00000
				CHANNELS 3 Xrotation Yrotation Zrotation
				JOINT RightArm
				{
					OFFSET -7.67467 -0.00003 0.00000
					CHANNELS 3 Xrotation Yrotation Zrotation
					JOINT RightForeArm
					{
						OFFSET -12.04206 -0.00004 0.00000
						CHANNELS 3 Xrotation Yrotation Zrotation
						JOINT RightHand
						{
							OFFSET -9.71053 -0.00004 0.00000
							CHANNELS 3 Xrotation Yrotation Zrotation
							JOINT RightHandThumb
							{
								OFFSET 0.00000 0.00000 0.00000
								CHANNELS 3 Xrotation Yrotation Zrotation
								End Site
								{
									OFFSET 0.00000 0.00000 3.93700
								}
							}
							JOINT R_Wrist_End
							{
								OFFSET -5.39369 -0.00002 0.00000
								CHANNELS 3 Xrotation Yrotation Zrotation
							}
						}
					}
				}
			}
		}
	}
}
MOTION
Frames: 15
Frame Time: 0.008333
 5.1884 28.3167 5.8888 104.7994 -1.4557 -114.3888 -80.2132 13.6097 20.4859 44.8796 0.0000 0.0000 5.6904 -8.8367 -18.0279 -19.5069 0.0000 -0.0000 -77.4730 -30.1589 -15.9247 63.3666 -0.0000 0.0000 -11.7283 -3.3438 21.1471 -5.8662 -0.0000 -0.0000 -6.3426 0.2385 2.3017 48.6832 -17.1218 -11.3213 -13.4786 21.2419 6.1187 -2.5515 1.8919 2.4484 13.4932 11.0351 27.2288 -90.6506 -38.8422 -60.2470 -0.0002 -40.6811 -0.0001 47.4510 -1.7473 81.9687 0.0000 -0.0000 0.0000 0.0000 -0.0000 0.0000 19.4280 -6.9104 -27.8998 -80.8430 55.3616 48.5301 -0.0003 56.2104 0.0002 51.4095 -4.3541 -51.6985 -0.0000 0.0000 -0.0000 -0.0000 0.0000 -0.0000
 6.5197 28.5879 5.7648 105.1283 -3.6213 -114.7671 -79.0914 13.7459 19.8911 41.3611 -0.0000 -0.0000 9.0916 -10.3345 -18.0888 -14.9904 0.0000 -0.0000 -76.7088 -32.1166 -16.9623 59.7874 -0.0000 0.0000 -7.0496 0.3182 24.0918 -5.8841 0.0000 -0.0000 -6.8447 -0.1280 2.9498 50.5393 -17.7530 -11.3186 -14.0743 21.5351 6.4594 -2.2866 1.9828 1.8178 13.3369 11.3135 27.5731 -90.9732 -38.6480 -59.6359 -0.0002 -40.6238 -0.0001 47.4496 -1.4695 82.5367 -0.0000 0.0000 -0.0000 -0.0000 0.0000 -0.0000 18.9571 -6.8092 -28.2491 -81.8998 54.9213 49.6473 -0.0003 55.9571 0.0002 52.3601 -5.8773 -52.4746 0.0000 -0.0000 0.0000 0.0000 -0.0000 0.0000
 7.8798 28.8136 5.6381 105.2959 -5.5090 -115.1350 -78.0576 13.9995 19.6674 38.3365 -0.0000 0.0000 13.0842 -11.8359 -14.9624 -12.9737 0.0000 0.0000 -75.6523 -33.9992 -17.6637 56.3392 0.0000 -0.0000 -1.5904 3.8930 28.3152 -5.8842 -0.0000 -0.0000 -7.3946 -0.3121 3.5664 52.8002 -18.1029 -11.3653 -14.5293 21.8683 6.8467 -2.5473 2.0323 1.0964 13.2219 11.4491 28.0259 -91.4350 -38.5850 -58.8087 -0.0002 -40.4095 -0.0001 47.7976 -1.4412 83.1316 -0.0000 -0.0000 -0.0000 -0.0000 -0.0000 -0.0000 18.6901 -6.8370 -28.4984 -82.6602 54.3488 49.9871 -0.0003 55.8819 0.0002 52.9013 -7.0435 -53.4049 0.0000 -0.0000 0.0000 0.0000 -0.0000 0.0000
 9.2239 28.9933 5.5226 105.2313 -7.2626 -115.2903 -77.2660 14.2812 19.6902 36.1037 0.0000 -0.0000 15.8913 -12.8540 -11.2617 -12.9195 -0.0000 -0.0000 -74.6347 -35.3890 -18.0945 53.3155 0.0000 -0.0000 4.3734 6.8781 34.1520 -5.8842 -0.0000 0.0000 -7.7442 -0.2817 3.9987 54.7776 -18.3207 -11.4948 -15.1642 22.0714 7.1670 -2.5667 2.2497 0.6250 12.9673 11.6023 28.3482 -91.8922 -38.8273 -58.1152 -0.0002 -40.1265 -0.0001 48.0034 -1.5369 83.5191 0.0000 0.0000 -0.0000 0.0000 0.0000 -0.0000 18.4322 -6.8536 -28.6286 -82.8436 53.9693 49.7475 -0.0003 56.0062 0.0002 54.0919 -9.1460 -53.5357 -0.0000 -0.0000 -0.0000 -0.0000 -0.0000 -0.0000
 10.5519 29.1308 5.4628 104.2640 -9.0112 -115.4616 -77.2566 14.4929 20.6432 34.6927 0.0000 0.0000 17.3247 -13.5776 -7.7337 -13.5829 0.0000 -0.0000 -73.7048 -36.3178 -17.4070 50.8043 0.0000 0.0000 10.7658 8.5394 38.6675 -5.8842 0.0000 0.0000 -7.9833 0.3908 4.3652 55.7842 -18.4896 -11.9963 -15.3151 22.6579 7.6101 -2.8686 2.2839 -0.1035 13.8353 12.2091 28.1116 -93.0493 -39.7677 -57.0558 -0.0002 -39.6734 -0.0001 47.6409 -1.5629 84.2484 -0.0000 -0.0000 -0.0000 -0.0000 -0.0000 -0.0000 18.2401 -6.6579 -28.7663 -83.1753 53.3708 50.0556 -0.0003 56.1950 0.0002 54.9670 -10.0127 -53.8779 0.0000 0.0000 -0.0000 0.0000 0.0000 -0.0000
 11.8778 29.2208 5.3959 103.1744 -10.3384 -115.5723 -77.1091 14.6763 21.9095 34.0924 -0.0000 0.0000 16.6741 -13.9906 -6.8101 -13.8069 0.0000 -0.0000 -72.8471 -37.2104 -16.6643 49.4448 -0.0000 0.0000 16.3745 10.4242 38.2185 -5.8842 0.0000 -0.0000 -8.2925 1.0271 4.4114 57.3955 -18.1890 -12.4870 -15.9306 22.7117 8.0085 -2.6641 2.4109 -0.6249 13.8259 12.3652 28.2772 -93.2112 -40.5507 -55.8109 -0.0002 -39.3914 -0.0001 47.6679 -2.4765 83.8126 0.0000 0.0000 0.0000 0.0000 0.0000 0.0000 18.1184 -6.6522 -28.8992 -83.1508 52.7183 49.6223 -0.0003 56.7937 0.0002 55.0859 -10.9747 -53.8082 0.0000 0.0000 0.0000 0.0000 0.0000 0.0000
 13.1611 29.2664 5.3716 101.9241 -11.7445 -115.8410 -77.5481 14.4221 23.4477 34.6798 0.0000 0.0000 14.8689 -13.9892 -6.3932 -13.6673 0.0000 0.0000 -72.3570 -37.9814 -15.7201 48.9916 -0.0000 0.0000 18.6397 12.5923 34.5131 -5.8842 0.0000 0.0000 -8.4382 1.6928 4.3705 58.4566 -17.6285 -12.9715 -16.5177 22.3895 8.1293 -2.0003 2.7581 -0.7077 13.1208 12.3137 28.7227 -92.6401 -41.0001 -54.9714 -0.0002 -39.3506 -0.0001 46.6566 -2.4581 83.5030 0.0000 0.0000 0.0000 0.0000 0.0000 0.0000 17.7451 -6.6410 -29.0136 -82.8120 52.3196 49.2936 -0.0003 57.2732 0.0002 54.8434 -11.4853 -53.7440 0.0000 -0.0000 -0.0000 0.0000 -0.0000 -0.0000
 14.4232 29.2686 5.3537 100.8256 -13.0193 -116.2609 -78.1131 13.8974 25.0142 36.1290 -0.0000 -0.0000 12.6331 -13.6506 -6.0871 -13.6754 -0.0000 -0.0000 -71.7635 -38.6159 -14.8871 49.4301 -0.0000 0.0000 17.4769 13.6755 29.5342 -1.7318 -0.0000 0.0000 -8.4673 2.3082 4.3649 59.4974 -16.9295 -13.4026 -16.7019 22.5251 8.4007 -1.9493 2.7278 -1.4589 12.7899 12.3622 29.1103 -92.4751 -41.5899 -54.1616 -0.0002 -39.0050 -0.0001 46.4851 -2.6075 83.4129 0.0000 -0.0000 -0.0000 0.0000 -0.0000 -0.0000 17.9445 -6.7120 -29.0263 -82.4652 51.9119 48.3785 -0.0003 57.7899 0.0002 54.7015 -12.2757 -53.5836 -0.0000 0.0000 -0.0000 -0.0000 0.0000 -0.0000
 15.6586 29.2684 5.2718 100.0166 -14.2241 -115.9495 -78.0801 13.6766 25.9148 37.6810 0.0000 0.0000 10.4121 -12.7418 -6.2902 -13.3061 0.0000 -0.0000 -72.8651 -38.7025 -16.0067 52.1586 0.0000 0.0000 13.5551 14.5288 20.7625 1.7261 0.0000 -0.0000 -8.1998 3.1245 4.2676 60.4009 -17.0079 -13.9178 -16.7141 22.6117 8.3788 -2.1322 2.8352 -1.8789 12.1535 12.3530 29.6697 -91.7310 -42.1916 -53.1690 -0.0002 -38.8612 -0.0001 45.6510 -1.8325 82.5801 -0.0000 0.0000 -0.0000 -0.0000 0.0000 -0.0000 17.7760 -6.5507 -28.9692 -81.5910 51.8089 47.2627 -0.0003 58.1909 0.0002 55.9238 -15.2519 -53.5714 -0.0000 0.0000 -0.0000 -0.0000 0.0000 -0.0000
 16.8058 29.2813 5.2121 99.3690 -16.3577 -115.8322 -78.9588 12.5580 26.1302 39.9709 -0.0000 -0.0000 8.9933 -11.6385 -6.1492 -13.2122 0.0000 -0.0000 -75.0296 -38.7893 -17.4655 54.9504 -0.0000 0.0000 9.8441 15.4216 14.8737 5.1931 0.0000 0.0000 -8.0312 3.6689 4.3659 60.2791 -17.1623 -14.2223 -16.3583 22.6189 8.1822 -2.2933 2.9298 -2.3122 11.9695 12.4369 30.1378 -91.1130 -42.6952 -52.2793 -0.0002 -38.8797 -0.0001 45.1286 -1.5732 81.8539 0.0000 0.0000 -0.0000 0.0000 0.0000 -0.0000 17.9833 -6.5901 -29.1334 -80.8740 51.4794 46.3717 -0.0003 58.6493 0.0002 57.0079 -18.5703 -53.6447 0.0000 -0.0000 0.0000 0.0000 -0.0000 0.0000
 17.9038 29.2532 5.1627 99.1035 -18.4382 -115.2782 -79.7568 11.6577 26.0325 42.7715 0.0000 -0.0000 7.9320 -10.8262 -6.0383 -12.9271 -0.0000 -0.0000 -76.6519 -38.1297 -18.6129 57.3173 -0.0000 0.0000 7.8903 15.4435 13.5486 1.4299 0.0000 0.0000 -7.5512 3.9199 3.9488 59.8816 -17.0924 -14.4087 -15.9596 22.5777 7.8132 -2.1092 2.9483 -2.5920 11.6333 12.4132 30.4605 -90.4715 -43.2887 -51.7833 -0.0002 -38.7468 -0.0001 44.1576 -0.8494 81.2402 -0.0000 0.0000 -0.0000 -0.0000 0.0000 -0.0000 17.8085 -6.4961 -29.4776 -79.5164 51.2236 45.5491 -0.0004 59.2864 0.0002 57.5422 -21.4868 -52.8960 0.0000 0.0000 -0.0000 0.0000 0.0000 -0.0000
 18.9966 29.2191 5.1188 98.9323 -20.6550 -114.8024 -80.7469 10.6336 25.8279 45.7432 -0.0000 0.0000 7.4566 -10.0972 -5.9737 -12.8656 -0.0000 -0.0000 -78.4422 -37.5257 -19.8123 59.8065 -0.0000 0.0000 5.9078 14.5059 12.4773 1.7231 -0.0000 0.0000 -7.0196 4.1987 3.6901 59.3657 -16.9956 -14.5797 -15.4520 22.6030 7.5856 -2.1267 2.6432 -3.1066 11.6138 12.4108 30.7520 -90.3479 -44.0446 -51.3741 -0.0002 -38.3847 -0.0001 43.7574 -1.7249 80.6523 0.0000 0.0000 -0.0000 0.0000 0.0000 -0.0000 17.4579 -6.3965 -29.9408 -77.9853 50.6106 44.9314 -0.0004 59.9688 0.0002 57.6979 -23.7871 -52.6778 -0.0000 -0.0000 -0.0000 -0.0000 -0.0000 -0.0000
 20.0806 29.1775 5.0803 98.8337 -23.0965 -114.2966 -81.9602 9.5326 25.4735 48.8441 -0.0000 0.0000 7.5561 -9.6784 -5.5829 -12.8042 -0.0000 0.0000 -80.4948 -36.7911 -21.0505 62.4614 -0.0000 0.0000 4.6006 12.9303 11.9949 1.6395 -0.0000 -0.0000 -6.4176 4.4628 3.4816 58.5262 -16.9800 -14.7234 -14.9268 22.5959 7.3204 -1.9864 2.3070 -3.5863 11.5535 12.3660 31.0603 -90.2997 -44.7161 -51.1931 -0.0002 -37.9406 -0.0001 43.5670 -1.9807 80.2029 0.0000 0.0000 -0.0000 0.0000 0.0000 -0.0000 17.0855 -6.3132 -30.4578 -76.5260 49.8576 44.6006 -0.0004 60.6235 0.0002 57.5355 -24.0184 -52.9394 0.0000 0.0000 -0.0000 0.0000 0.0000 -0.0000
 21.1628 29.1168 5.0482 98.8848 -25.7417 -113.7563 -83.3855 8.4511 24.9721 51.9783 -0.0000 0.0000 8.3836 -9.5101 -4.7635 -12.7128 -0.0000 -0.0000 -82.7743 -36.0607 -22.4603 65.1667 0.0000 -0.0000 4.3080 11.0522 11.9682 0.5372 -0.0000 0.0000 -5.8601 4.6434 3.3399 57.6089 -16.9981 -14.8228 -14.5147 22.4041 6.9690 -1.5543 2.0366 -3.9192 11.3541 12.2354 31.4183 -90.1772 -45.3248 -51.1164 -0.0002 -37.5987 -0.0001 43.1725 -2.1928 79.6333 0.0000 0.0000 0.0000 0.0000 0.0000 0.0000 16.6844 -6.3045 -31.0653 -75.2758 48.9201 44.6035 -0.0004 61.2025 0.0002 57.3161 -24.2660 -53.2034 0.0000 -0.0000 0.0000 0.0000 -0.0000 0.0000
 22.2571 29.0263 5.0103 99.0820 -28.5548 -113.1334 -84.9471 7.4931 24.3609 55.0692 -0.0000 -0.0000 9.7157 -9.6644 -3.7129 -12.6863 0.0000 0.0000 -84.8135 -35.0185 -23.7377 67.6208 -0.0000 0.0000 5.3165 9.1439 16.8924 -2.7192 -0.0000 -0.0000 -5.3788 4.8474 3.3274 56.7138 -17.1262 -14.9395 -14.1430 22.2280 6.8640 -1.1314 1.5782 -4.6225 11.3489 12.1941 31.7150 -90.5920 -45.9904 -51.2865 -0.0002 -37.1304 -0.0001 42.9519 -2.4253 79.0508 -0.0000 0.0000 -0.0000 -0.0000 0.0000 -0.0000 16.3548 -6.4164 -31.4780 -74.3529 47.9565 44.8806 -0.0004 61.6391 0.0002 57.0680 -24.3509 -53.1631 -0.0000 0.0000 0.0000 -0.0000 0.0000 0.0000
